<?xml version="1.0" encoding="utf-8"?>
<!-- Generator: Adobe Illustrator 16.2.1, SVG Export Plug-In . SVG Version: 6.00 Build 0)  -->
<!DOCTYPE svg PUBLIC "-//W3C//DTD SVG 1.1//EN" "http://www.w3.org/Graphics/SVG/1.1/DTD/svg11.dtd">
<svg version="1.1" id="Layer_3" xmlns="http://www.w3.org/2000/svg" xmlns:xlink="http://www.w3.org/1999/xlink" x="0px" y="0px"
	 width="240px" height="234.005px" viewBox="0 0 240 234.005" enable-background="new 0 0 240 234.005" xml:space="preserve">
<rect y="0.003" fill-rule="evenodd" clip-rule="evenodd" fill="#002846" width="240" height="234.001"/>
<linearGradient id="SVGID_1_" gradientUnits="userSpaceOnUse" x1="0" y1="124.0029" x2="240.0005" y2="124.0029">
	<stop  offset="0" style="stop-color:#45C0DD;stop-opacity:0.1"/>
	<stop  offset="0.5018" style="stop-color:#45C0DD"/>
	<stop  offset="1" style="stop-color:#45C0DD;stop-opacity:0.1"/>
</linearGradient>
<path opacity="0.18" fill-rule="evenodd" clip-rule="evenodd" fill="url(#SVGID_1_)" d="M0,225.004h240v6H0V225.004z M0,199.004h240
	v6H0V199.004z M0,147.004h240v6H0V147.004z M0,121.004h240v6H0V121.004z M0,95.003h240v6H0V95.003z M0,69.003h240v6H0V69.003z
	 M0,43.003h240v6H0V43.003z M0,17.003h240v6H0V17.003z M0,173.004h240v6H0V173.004z"/>
<linearGradient id="SVGID_2_" gradientUnits="userSpaceOnUse" x1="0" y1="111.0034" x2="240.0005" y2="111.0034">
	<stop  offset="0" style="stop-color:#45C0DD;stop-opacity:0.1"/>
	<stop  offset="0.5018" style="stop-color:#45C0DD"/>
	<stop  offset="1" style="stop-color:#45C0DD;stop-opacity:0.1"/>
</linearGradient>
<path opacity="0.35" fill-rule="evenodd" clip-rule="evenodd" fill="url(#SVGID_2_)" d="M0,186.004h240v6H0V186.004z M0,212.004h240
	v6H0V212.004z M0,134.004h240v6H0V134.004z M0,160.004h240v6H0V160.004z M0,108.003h240v6H0V108.003z M0,82.003h240v6H0V82.003z
	 M0,56.003h240v6H0V56.003z M0,30.003h240v6H0V30.003z M0,4.003h240v6H0V4.003z"/>
<path fill-rule="evenodd" clip-rule="evenodd" fill="#45C0DD" d="M80,163.354c0,0.811-0.32,1.65-1.13,1.65H64.29
	c-0.97,0-1.29-0.32-1.29-1.291V59.733c0-0.8,0.32-1.45,0.96-1.45c7.89-0.32,15.05-0.48,26.96-0.48c23.02,0,36.87,10.95,36.87,30.91
	c0,16.42-10.95,25.6-20.13,28.98c4.67,8.051,20.45,36.199,25.6,45.859c0.48,0.811,0.48,1.451-0.64,1.451h-16.75
	c-1.12,0-1.61-0.84-1.93-1.33c-3.7-6.43-15.29-28.15-22.7-41.67H80V163.354z M89.82,107.003c11.75,0,20.26-4.67,20.26-16.74
	c0-11.76-7.7-17-19.62-17c-4.18,0-8.21,0.16-10.46,0.32v33.42H89.82z M140.11,104.003c-0.641,0-1.11-0.319-1.11-1.13v-12.9
	c0-0.81,0.16-0.97,0.81-0.97H149v-4.99c0-5.96,0.969-11.08,3.219-15.42c4.031-8.21,10.641-11.92,20.301-11.92
	c2.9,0,4.9,0.16,6.52,0.81c0.801,0.32,0.961,0.64,0.961,1.45v12.88c0,0.8-0.32,1.12-1.131,0.96c-1.279-0.32-3.209-0.48-4.5-0.48
	c-5.629,0-8.369,4.02-8.369,11.75v4.96h12.789c0.811,0,1.211,0.16,1.211,0.8v13.07c0,0.811-0.16,0.97-0.971,1.13H166v59.55
	c0,0.641-0.16,1.451-1.131,1.451h-14.74c-0.811,0-1.129-0.48-1.129-1.131v-59.87H140.11z"/>
</svg>
